# xmcd
#
# Track frame offsets: 
#        150
#        17657
#        31029
#        45073
#        66838
#        81357
#        104447
#        117506
#        134983
#        149120
#        162435
#        173162
#        188926
#        208313
#
# Disc length: 2961 seconds
#
# Revision: 8
# Processed by: cddbd v1.5.2PL0 Copyright (c) Steve Scherf et al.
# Submitted via: ExactAudioCopyFreeDBPlugin 1.0
#
DISCID=d10b8f0e
DTITLE=Dwight Yoakam - Tomorrow's Sounds Today
DYEAR=2000
DGENRE=Country
TTITLE0=Love Caught Up To Me
TTITLE1=What Do You Know About Love
TTITLE2=Time Spent Missing You
TTITLE3=Free To Go
TTITLE4=A Promise You Can´T Keep
TTITLE5=A Place To Cry
TTITLE6=The Sad Side Of Town
TTITLE7=Dreams Of Clay
TTITLE8=For Love's Sake
TTITLE9=The Heartaches Are Free
TTITLE10=A World Of Blue
TTITLE11=I Want You To Want Me
TTITLE12=Alright  I'm Wrong
TTITLE13=I Was There
EXTD=YEAR: 2000
EXTT0=
EXTT1=
EXTT2=
EXTT3=
EXTT4=
EXTT5=
EXTT6=
EXTT7=
EXTT8=
EXTT9=
EXTT10=
EXTT11=
EXTT12=
EXTT13=
PLAYORDER=
